<?xml version="1.0" encoding="UTF-8"?>
<svg id="Camada_2" data-name="Camada 2" xmlns="http://www.w3.org/2000/svg" viewBox="0 0 1785.41 632.22">
  <defs>
    <style>
      .cls-1 {
        fill: #50b588;
      }

      .cls-2 {
        fill: #002a43;
      }
    </style>
  </defs>
  <g id="Camada_1-2" data-name="Camada 1">
    <g>
      <path class="cls-2" d="M1182.89,274.2v254.8c0,51.09-54.91,93.31-101.47,100.99-46.52,7.67-103.23-4.23-135.15-39.47-.14-4.45,28.11-43.77,31-44.36,31.89,31.34,114.57,46.18,136.25-2.36.96-2.14,5.68-16.17,5.68-17.07v-32.98c-77.16,81.01-194.75,12.66-186.61-94.48,7-92.11,118.42-148.36,185.49-76.14l1.14-29.55M1052.73,346.4c-79.87,8.34-69.07,136.45,17.36,124.39,72.66-10.14,61.89-132.67-17.36-124.39Z"/>
      <path class="cls-2" d="M63.69,188.92v134.21c3.56-.41,3.55-5.18,6.7-8.09,53.33-49.29,142.74-20.52,172.35,41.73,57.31,120.5-84.15,242.24-183.57,146.06l2.25,29.57H0V188.92h63.69ZM122.4,346.37c-80.23,4.3-77.63,136.91,6.14,133.86,83.99-3.06,80.28-138.5-6.14-133.86Z"/>
      <path class="cls-2" d="M520.93,432.32h-177.43c7.18,46.62,58.16,62.76,97.15,41.41,5.06-2.77,22.01-18.91,24.25-18.51l40.2,32.71c-53.89,79.12-187.84,60.64-220.23-29.96-36.99-103.47,58.91-195.62,162.22-159.95,34.99,12.08,73.84,59.15,73.84,96.76v37.53ZM457.23,389.1c-5.09-63.27-103.63-61.23-111.46,0h111.46Z"/>
      <path class="cls-2" d="M1432.25,326.33c57.7,56.26,43.22,158.53-28.98,195.56-100.96,51.78-216.08-27.36-187.41-141.91,23.53-93.99,150.48-117.91,216.39-53.65ZM1337.17,346.42c-82.42,3.02-80.74,141.22,8.35,133.63,80.34-6.85,72.43-136.59-8.35-133.63Z"/>
      <path class="cls-2" d="M911.47,472.24l31.88,45.48c-69.9,47.48-142.79,26.68-159.19-26.76-2.04-6.64-3.91-26.49-3.91-32.49v-110.33h-43.22v-51.18c0-.24,3.17-3.41,3.41-3.41h39.81v-68.24h65.97v68.24h65.97v54.59h-65.97v112.6c.19,6.66,6.96,11.93,9.15,13.6,15.7,12,40.69,8.65,56.11-2.11"/>
      <path class="cls-2" d="M687.03,366.33c-10.45-21.96-68.79-37.38-80.23-10.75-11.73,27.3,51.47,33.59,68.29,39.72,34.5,12.58,57.37,36.97,52.24,76.24-9.65,73.87-110.78,78.57-163.26,48.43-5.76-3.31-23.62-16.61-26.24-21.74-1.67-3.27.07-3.53,1.06-5.74,2-4.45,26.27-36.82,28.98-37.27,20.5,18.53,45.44,32.68,74.17,28.8,19.21-2.59,38.66-21.18,18.45-35.45-34.31-24.23-105.57-11.09-113.94-74.85-10.08-76.72,82.64-97.91,138.98-73.03,6.86,3.03,33.43,18.48,33.39,25.84-.01,2.37-25.46,37.27-27.34,38.71-1.69,1.29-2.43,1.43-4.54,1.08Z"/>
      <path class="cls-2" d="M1532.1,295.75l53.46,157.03,47.75-90.96,88.74-38.71-103.49,207.07c-4.63,5.58-51.53.34-61.58,2.38l-96.54-241.25"/>
      <g>
        <path class="cls-1" d="M1621.3.67c11.82-1.8,20.14.18,31.01,4.29,19.49,7.37,96.72,51.85,112.33,65.1,11.25,9.55,17.52,23.32,18.86,38.01,2.5,27.35,2.61,84.34-.12,111.53-1.58,15.68-9.64,29.81-21.99,39.43-20.71,16.12-80.26,50.36-104.64,61.42-13.57,6.16-24.4,9.3-39.54,6.23-15.31-3.11-106.25-56.72-120.23-68.58-15.96-13.54-18.88-27.7-20.46-47.81-1.65-21.06-1.34-52.99-.32-74.94,1.52-32.98.72-50.98,28.98-71.11,17.28-12.31,99.45-61.04,116.12-63.57ZM1730.33,226.83c4.19-4.39,6.9-12.52,7.59-18.57,1.98-17.46,2.43-76.44-.53-92.74-.99-5.43-4.86-12.37-8.79-16.23-5.88-5.78-78.83-49.27-86.82-51.93-5.69-1.89-10.32-2.51-16.31-1.62-8.77,1.31-63.73,34.18-74.78,41.25-19.09,12.22-26.35,15.1-28.64,39.62-1.74,18.62-1.81,53.42-.31,72.62.96,12.28,2.06,21.04,11.64,29.3,11.04,9.53,67.88,42.67,81.74,47.92,20.9,7.92,27.17,1.64,44.71-7.54,13.49-7.06,62.28-33.49,70.51-42.1Z"/>
        <path class="cls-1" d="M1623.58,121.22c28.1-4.55,53.61,20.08,50.47,48.15-3.61,32.34-43.53,49.99-69.78,29.22-28.97-22.93-16.86-71.51,19.31-77.37Z"/>
      </g>
    </g>
  </g>
</svg>