<svg xmlns="http://www.w3.org/2000/svg" width="300" height="300" viewBox="0 0 300 300" fill="none">
  <path d="M150 25C216.274 25 270 78.7258 270 145C270 211.274 216.274 265 150 265C83.7258 265 30 211.274 30 145C30 78.7258 83.7258 25 150 25Z" fill="#102B3F"/>
  <path fill-rule="evenodd" clip-rule="evenodd" d="M109.892 102.784C105.858 102.784 102.6 106.042 102.6 110.076V179.903C102.6 183.937 105.858 187.195 109.892 187.195H190.108C194.142 187.195 197.4 183.937 197.4 179.903V110.076C197.4 106.042 194.142 102.784 190.108 102.784H109.892ZM144.04 163.025H123.288V126.954H144.04V134.445H130.78V140.985H142.56V148.475H130.78V155.535H144.04V163.025ZM145.872 155.535H158.16C159.379 155.535 160.387 155.102 161.184 154.235C161.946 153.369 162.326 152.31 162.326 151.059C162.326 149.702 161.963 148.66 161.236 147.933C160.51 147.206 159.467 146.843 158.109 146.843H153.226V139.352H158.109C159.071 139.352 159.866 139.053 160.493 138.459C161.15 137.832 161.478 136.991 161.478 135.933C161.478 134.942 161.167 134.135 160.545 133.509C159.918 132.882 159.105 132.569 158.109 132.569H145.872V126.954H158.88C161.08 126.954 162.925 127.615 164.418 128.938C165.945 130.227 166.708 131.913 166.708 133.996C166.708 135.559 166.311 136.924 165.514 138.093C164.752 139.227 163.7 140.105 162.36 140.731V140.835C164.194 141.219 165.686 142.074 166.837 143.398C167.987 144.688 168.563 146.235 168.563 148.041C168.563 150.537 167.697 152.585 165.968 154.183C164.238 155.751 162.067 156.536 159.452 156.536H145.872V155.535ZM176.904 126.954H184.396V163.025H176.904V126.954Z" fill="#5FD3AE"/>
</svg>